<svg width="0" height="0" class="hidden">
  <symbol xmlns="http://www.w3.org/2000/svg" viewBox="0 0 512 512" id="trash">
    <path d="M424 64h-88V48c0-26.467-21.533-48-48-48h-64c-26.467 0-48 21.533-48 48v16H88c-22.056 0-40 17.944-40 40v56c0 8.836 7.164 16 16 16h8.744l13.823 290.283C87.788 491.919 108.848 512 134.512 512h242.976c25.665 0 46.725-20.081 47.945-45.717L439.256 176H448c8.836 0 16-7.164 16-16v-56c0-22.056-17.944-40-40-40zM208 48c0-8.822 7.178-16 16-16h64c8.822 0 16 7.178 16 16v16h-96zM80 104c0-4.411 3.589-8 8-8h336c4.411 0 8 3.589 8 8v40H80zm313.469 360.761A15.98 15.98 0 01377.488 480H134.512a15.98 15.98 0 01-15.981-15.239L104.78 176h302.44z"></path>
    <path d="M256 448c8.836 0 16-7.164 16-16V224c0-8.836-7.164-16-16-16s-16 7.164-16 16v208c0 8.836 7.163 16 16 16zm80 0c8.836 0 16-7.164 16-16V224c0-8.836-7.164-16-16-16s-16 7.164-16 16v208c0 8.836 7.163 16 16 16zm-160 0c8.836 0 16-7.164 16-16V224c0-8.836-7.164-16-16-16s-16 7.164-16 16v208c0 8.836 7.163 16 16 16z"></path>
  </symbol>
  <symbol xmlns="http://www.w3.org/2000/svg" viewBox="0 0 512 512" id="add">
    <path d="M256 0C114.833 0 0 114.833 0 256s114.833 256 256 256 256-114.853 256-256S397.167 0 256 0zm0 472.341c-119.275 0-216.341-97.046-216.341-216.341S136.725 39.659 256 39.659 472.341 136.705 472.341 256 375.295 472.341 256 472.341z"></path>
    <path d="M355.148 234.386H275.83v-79.318c0-10.946-8.864-19.83-19.83-19.83s-19.83 8.884-19.83 19.83v79.318h-79.318c-10.966 0-19.83 8.884-19.83 19.83s8.864 19.83 19.83 19.83h79.318v79.318c0 10.946 8.864 19.83 19.83 19.83s19.83-8.884 19.83-19.83v-79.318h79.318c10.966 0 19.83-8.884 19.83-19.83s-8.864-19.83-19.83-19.83z"></path>
  </symbol>
</svg>