<?xml version="1.0" standalone="no"?>
<!DOCTYPE svg PUBLIC "-//W3C//DTD SVG 20010904//EN"
 "http://www.w3.org/TR/2001/REC-SVG-20010904/DTD/svg10.dtd">
<svg version="1.0" xmlns="http://www.w3.org/2000/svg"
 width="512.000000pt" height="512.000000pt" viewBox="0 0 512.000000 512.000000"
 preserveAspectRatio="xMidYMid meet">
<metadata>
Created by potrace 1.11, written by Peter Selinger 2001-2013
</metadata>
<g transform="translate(0.000000,512.000000) scale(0.100000,-0.100000)"
fill="#000000" stroke="none">
<path d="M2410 5113 c-302 -38 -515 -109 -738 -245 -261 -159 -489 -406 -633
-685 -66 -129 -140 -344 -155 -453 -2 -19 -7 -46 -10 -60 -10 -49 -20 -216
-18 -300 6 -314 88 -572 299 -945 34 -60 74 -130 87 -155 43 -78 350 -633 376
-680 14 -25 35 -63 47 -85 70 -128 94 -172 160 -290 87 -157 370 -668 412
-745 16 -30 54 -98 83 -150 29 -52 69 -124 88 -160 64 -119 84 -144 125 -153
71 -17 103 10 179 153 19 36 57 106 85 155 28 50 62 110 75 135 14 25 75 135
136 245 60 110 121 220 135 245 13 25 44 81 69 125 24 44 62 112 83 150 55
101 71 130 182 330 55 99 114 207 132 240 19 33 41 74 51 90 9 17 34 62 55
100 21 39 68 124 105 190 37 66 82 147 100 180 18 33 51 92 72 130 200 353
273 612 271 956 -2 366 -121 714 -347 1014 -57 76 -279 305 -295 305 -4 0 -21
11 -37 26 -39 34 -185 124 -270 167 -128 64 -362 139 -477 153 -23 3 -53 7
-67 11 -27 6 -320 11 -360 6z m310 -863 c133 -24 265 -86 378 -178 165 -133
263 -306 307 -537 16 -88 -4 -318 -34 -390 -5 -11 -17 -40 -27 -65 -89 -217
-292 -403 -519 -476 -105 -33 -147 -39 -285 -38 -225 2 -424 87 -585 250 -267
271 -324 682 -140 1009 183 325 538 492 905 425z"/>
</g>
</svg>
